<svg xmlns="http://www.w3.org/2000/svg" xmlns:xlink="http://www.w3.org/1999/xlink" xml:space="preserve">


	<!-- Main logo -->
	<symbol id="logo">
        <title>ShopThatVideo</title>
        <path d="M5.2,13.58c-0.12-0.47-0.4-1.64,2.06-1.64c2.26,0,3.18,0.9,3.18,0.9l1.27-3.99c0,0-1.63-1.13-4.45-1.13c-5.24,0-7.03,3.33-6.79,5.79c0.67,6.77,9.61,4.58,9.61,8.69c0,1.02-0.83,2.15-2.74,2.15c-2.26,0-2.98-1.25-2.98-1.96L0,22.81c0.12,2.93,2.62,5.56,7.34,5.56c5.16,0,7.34-3.05,7.34-6.1C14.69,15.22,5.72,15.85,5.2,13.58z M26.8,8.57c-2.54-1.17-5.76-0.7-6.91-0.23V0.39h-4.37v27.39h4.37V12.56c1.27-0.82,5.91-1.92,5.91,3.21v12.01h4.37V14.24C30.17,11.27,28.78,9.47,26.8,8.57z M39.1,7.75c-4.8,0-7.46,2.74-7.46,7.67v5.17c0,3.99,2.26,7.59,7.46,7.59c5.24,0,7.34-3.6,7.34-7.59v-5.17C46.45,10.68,43.71,7.75,39.1,7.75z M42.12,20.97c0,2.11-1.39,2.97-3.02,2.97s-3.1-0.7-3.1-2.97v-5.56c0-2.86,1.75-3.33,3.1-3.33c1.15,0,3.02,0.16,3.02,3.33V20.97z M55.54,7.87c-1.27,0-2.62,0.39-3.06,0.59l-0.24-0.27h-4.13V36l4.37-0.86V27.7c0.75,0.2,1.11,0.55,3.22,0.55c4.29,0,7.38-2.47,7.38-7.36v-5.44C63.08,11.19,60.66,7.87,55.54,7.87z M58.71,19.88c0,2.74-0.48,4.07-3.02,4.07c-2.7,0-3.22-1.76-3.22-3.52V15.1c0-1.8,0.99-3.01,3.22-3.01c2.26,0,3.02,1.25,3.02,3.21V19.88z M67.45,0.39h-0.75v22.23c0,3.09,1.19,4.77,4.21,5.67l0.24-0.7c-2.54-0.82-3.69-2-3.69-4.97V8.92h5.87l0.36-0.74h-6.23V0.39z M86.38,8.65C83.8,7.47,79.28,7.51,75.86,9.2v-8.8h-0.75v27.39h0.75V10.02C80.39,7.63,89,7.47,89,14.2v13.58h0.75V14.24C89.76,11.27,88.41,9.55,86.38,8.65z M99.6,7.87l-0.08,0.74c6.19-0.12,7.58,2.82,7.58,5.63c-3.33-2.15-8.81-2.82-11.63-1.49c-1.63,0.78-2.9,2.35-2.9,5.17v3.25c0,8.33,8.97,7.24,15.28,6.61V16.12C107.86,12.37,107.82,7.87,99.6,7.87z M107.11,27.08c-6.39,0.82-13.77,1.13-13.77-5.63v-3.4c0-7.79,10.16-5.4,13.77-2.9V27.08z M112.31,0.39h-0.75v22.23c0,3.09,1.19,4.77,4.21,5.67l0.24-0.7c-2.54-0.82-3.69-2-3.69-4.97V8.92h5.87l0.36-0.74h-6.23V0.39z M128.94,20.15l-3.69-11.97h-4.76l6.35,19.6h4.21l6.23-19.6h-4.72L128.94,20.15z M139.78,0c-1.27,0-2.38,1.06-2.38,2.27c0,1.25,1.11,2.35,2.38,2.35c1.23,0,2.3-1.1,2.3-2.35C142.08,1.06,141.01,0,139.78,0z M137.48,27.78h4.37V8.18h-4.37V27.78z M153.95,8.3c-1.23-0.43-4.33-0.9-6.95,0.31c-1.98,0.9-3.37,2.66-3.37,5.63v7.4c0,2.82,1.31,4.54,3.1,5.44c3.53,1.76,6.59,1.13,11.55,0.7V0.39h-4.33V8.3z M153.95,23.99c-3.18,0.82-5.99-0.31-5.99-2.07v-6.1c0-3.95,3.53-4.19,5.99-2.97V23.99z M167.41,7.83c-4.33,0-7.3,2.39-7.3,6.69v8.02c0,4.07,2.82,5.83,6.75,5.71c2.26-0.04,4.68-0.7,6.55-1.84l-1.59-3.72c-4.8,2.5-7.3,1.8-7.3-0.74v-1.1l9.88-0.51V14.4C174.4,10.29,171.82,7.83,167.41,7.83z M169.99,16.55l-5.48,0.35v-2.35c0-0.98,0.64-2.5,2.86-2.5c1.39,0,2.62,0.78,2.62,2.43V16.55z M182.66,7.75c-4.8,0-7.46,2.74-7.46,7.67v5.17c0,3.99,2.26,7.59,7.46,7.59c5.24,0,7.34-3.6,7.34-7.59v-5.17C190,10.68,187.26,7.75,182.66,7.75z M185.67,20.97c0,2.11-1.39,2.97-3.02,2.97c-1.63,0-3.1-0.7-3.1-2.97v-5.56c0-2.86,1.75-3.33,3.1-3.33c1.15,0,3.02,0.16,3.02,3.33V20.97z"/>
	</symbol>
	<symbol id="icon_fbk" viewbox="0 0 32 32">
        <title>Facebook</title>
        <path d="M30.23,0H1.77C0.79,0,0,0.79,0,1.77v28.47C0,31.21,0.79,32,1.77,32h15.33V19.61h-4.17v-4.83h4.17v-3.56 c0-4.13,2.52-6.38,6.21-6.38c1.77,0,3.28,0.13,3.73,0.19v4.32l-2.56,0c-2.01,0-2.39,0.95-2.39,2.35v3.08h4.78l-0.62,4.83h-4.16V32 h8.16c0.97,0,1.77-0.79,1.77-1.77V1.77C32,0.79,31.21,0,30.23,0z"/>
	</symbol>
	<symbol id="icon_twt" viewbox="0 0 32 32">
        <title>Twitter</title>
        <path d="M32,5.7L32,5.7L32,5.7 M22.15,2.5c-3.63,0-6.56,3.05-6.56,6.82c0,0.53,0.06,1.05,0.17,1.55 c-5.46-0.28-10.29-3-13.53-7.12C1.66,4.75,1.34,5.92,1.34,7.17c0,2.37,1.16,4.45,2.92,5.67C3.18,12.81,2.17,12.51,1.29,12 c0,0.03,0,0.06,0,0.09c0,3.3,2.26,6.06,5.27,6.68C6,18.92,5.42,19,4.82,19c-0.42,0-0.83-0.04-1.24-0.12 c0.84,2.71,3.26,4.68,6.13,4.73c-2.25,1.83-5.08,2.92-8.15,2.92c-0.53,0-1.05-0.03-1.57-0.1c2.91,1.93,6.36,3.06,10.06,3.06 c12.08,0,18.68-10.39,18.68-19.39c0-0.3-0.01-0.59-0.02-0.88c1.28-0.96,2.4-2.16,3.28-3.53c-1.18,0.54-2.44,0.91-3.77,1.07 c1.36-0.84,2.4-2.18,2.89-3.77c-1.27,0.78-2.67,1.35-4.17,1.65C25.75,3.33,24.04,2.5,22.15,2.5"/>
	</symbol>
	<symbol id="icon_lkd" viewbox="0 0 32 32">
        <title>LinkedIn</title>
        <path d="M29.63,0H2.36C1.06,0,0,1.03,0,2.31v27.39C0,30.97,1.06,32,2.36,32h27.27c1.3,0,2.37-1.03,2.37-2.31V2.31C32,1.03,30.93,0,29.63,0z M10,27H5V12h5V27z M7.39,9.54c-1.53,0-2.77-1.24-2.77-2.77C4.63,5.24,5.86,4,7.39,4c1.52,0,2.76,1.24,2.76,2.77C10.15,8.3,8.92,9.54,7.39,9.54z M27,27h-4.81v-7.11c0-1.7-0.03-3.88-2.5-3.88c-2.5,0-2.89,1.85-2.89,3.76V27H12V12h4.61v2.37h0.07c0.64-1.15,2.21-2.36,4.55-2.36c4.87,0,5.77,3.03,5.77,6.97V27z"/>
	</symbol>

    <!-- Icons Large -->
	<symbol id="rocket" viewbox="0 0 160 110">
        <title></title>
        <path d="M118.43,3c7.25,0,12.89,0.59,12.95,0.59c0.15,1.41,3.56,34.62-7.25,45.27c-14.95,14.74-27.22,20.8-39.09,26.67c-0.33,0.16-0.54,0.5-0.54,0.86v16.73L73.05,107l-7.09-20.96L48.95,69.03L28,61.93l13.86-11.45h16.73c0.37,0,0.7-0.21,0.86-0.54c5.87-11.87,11.93-24.15,26.66-39.1C92.5,4.36,107.21,3,118.43,3"/>
        <path d="M45.67,82.17c-0.92,0.25-9.08,2.53-12.95,6.4c-3.54,3.54-4.56,15.14-4.72,17.42c-0.02,0.26,0.07,0.52,0.25,0.71c0.18,0.19,0.43,0.3,0.69,0.3c0,0,0,0,0.01,0c2.44-0.02,14.79-0.29,18.35-3.85c4.05-4.05,5.5-13.89,5.5-13.89"/>
	</symbol>
	<symbol id="thumb_down" viewbox="0 0 160 110">
        <title></title>
        <path d="M77.67,107c-0.18,0-0.35-0.01-0.53-0.04c-4.44-0.66-11.9-4.02-11.9-19.14c0-8.2,2.6-17.84,3.68-21.49h-23.2c-7.62,0-12.36-3.49-12.36-9.12c0-3.69,1.75-6.02,3.74-7.38c-0.48-0.16-0.97-0.36-1.46-0.61C33.52,48.15,31,45.87,31,41.17c0-4.68,2.66-7.18,5.94-8.21c-1.93-1.39-3.59-3.73-3.59-7.44c0-4.96,3.03-7.51,6.49-8.49c-1.09-1.08-1.93-2.71-1.93-5.09C37.9,4.34,44.15,3,57.26,3h20.5c7.45,0,12.81,2.01,17.55,3.79c4.01,1.5,7.79,2.92,12.29,2.92c6.76,0,13.45,0.08,13.45,0.08c0.18,0,0.36,0.05,0.52,0.13c0.3,0.16,7.44,4.1,7.44,21.36c0,16.87-4.51,25.09-4.7,25.43c-0.16,0.29-0.44,0.49-0.76,0.56c-0.17,0.03-16.99,3.56-26.75,13.26C87.16,80.08,82,94.4,81.27,103.66C81.12,105.53,79.54,107,77.67,107z"/>
	</symbol>
	<symbol id="devices" viewbox="0 0 160 110">
        <title></title>
        <path d="M52.02,2H8.98C5.68,2,3,4.74,3,8.1v93.79c0,3.37,2.68,6.1,5.98,6.1h43.04c3.3,0,5.98-2.74,5.98-6.1V8.1C58,4.74,55.32,2,52.02,2z"/>
        <path d="M35,95.5c0,2.49-2.01,4.5-4.5,4.5S26,97.99,26,95.5s2.01-4.5,4.5-4.5S35,93.01,35,95.5z"/>
        <path d="M38,13H22"/>
        <path d="M107.26,17H77.74C74.58,17,72,19.59,72,22.77v64.47c0,3.18,2.58,5.77,5.74,5.77h29.52c3.16,0,5.74-2.59,5.74-5.77V22.77C113,19.59,110.42,17,107.26,17z"/>
        <path d="M92.5,80c-1.93,0-3.5,1.57-3.5,3.5s1.57,3.5,3.5,3.5s3.5-1.57,3.5-3.5S94.43,80,92.5,80z"/>
        <path d="M98,27H87"/>
        <path d="M152.8,27h-21.6c-2.32,0-4.2,1.91-4.2,4.25v47.5c0,2.34,1.88,4.25,4.2,4.25h21.6c2.32,0,4.2-1.91,4.2-4.25v-47.5C157,28.91,155.12,27,152.8,27z"/>
        <path d="M142,74c-1.1,0-2,0.9-2,2s0.9,2,2,2s2-0.9,2-2S143.1,74,142,74z"/>
        <path d="M138,34h8"/>
	</symbol>
	<symbol id="piechart" viewbox="0 0 160 110">
        <title></title>
        <path d="M85,13c25.96,0,47,21.04,47,47s-21.04,47-47,47S38,85.96,38,60"/>
        <path d="M72.18,3C48.42,4.41,29.41,23.42,28,47.18C27.91,48.73,29.19,50,30.75,50h41.43c1.56,0,2.82-1.26,2.82-2.82V5.75C75,4.19,73.73,2.91,72.18,3z"/>
	</symbol>
	<symbol id="graph" viewbox="0 0 160 110">
        <title></title>
        <path d="M20.01,82c4.97,0,9,4.03,9,9s-4.03,9-9,9s-9-4.03-9-9S15.04,82,20.01,82z"/>
        <path d="M25.31,83.73l21.17-29.06"/>
        <path d="M51.78,38.4c4.97,0,9,4.03,9,9s-4.03,9-9,9s-9-4.03-9-9S46.81,38.4,51.78,38.4z"/>
        <path d="M60.43,49.9l27.85,8.05"/>
        <path d="M96.93,51.45c4.97,0,9,4.03,9,9s-4.03,9-9,9s-9-4.03-9-9S91.96,51.45,96.93,51.45z"/>
        <path d="M102.78,53.62l23.95-27.93"/>
        <path d="M132.75,10c4.97,0,9,4.03,9,9s-4.03,9-9,9s-9-4.03-9-9S127.78,10,132.75,10z"/>
	</symbol>
	<symbol id="video" viewbox="0 0 160 110">
        <title></title>
        <path d="M141.67,18.33c-2.13-4.82-8.04-9.54-13.19-10.51C127.86,7.71,112.97,5,79.95,5C47.02,5,32.14,7.71,31.52,7.83c-5.24,0.99-11.04,5.6-13.2,10.51C18.1,18.83,13,30.69,13,55c0,24.31,5.1,36.17,5.31,36.66c2.13,4.83,8.05,9.55,13.2,10.51c0.62,0.11,15.5,2.83,48.43,2.83h0.09c32.93,0,47.82-2.71,48.44-2.83c5.15-0.96,11.07-5.68,13.19-10.51C141.89,91.17,147,79.31,147,55C147,30.69,141.89,18.83,141.67,18.33z"/>
        <path d="M98.43,57.48L71.48,72.91c-2.4,1.37-4.34,0.25-4.34-2.52V39.61c0-2.76,1.94-3.89,4.34-2.52l26.95,15.43C100.83,53.89,100.83,56.11,98.43,57.48z"/>
	</symbol>
    <symbol id="conversion" viewbox="0 0 160 110">
        <title></title>
        <path d="M21,65.17V17c0-4.42,3.58-8,8-8h102c4.42,0,8,3.58,8,8v66c0,4.42-3.58,8-8,8H21"/>
        <path d="M42,104 21,91 42,78 "/>
    </symbol>
    
    <!-- Icons Small -->
	<symbol id="product" viewbox="0 0 52 52">
        <title></title>
        <path fill="currentColor" d="M50,26c0,13.25-10.75,24-24,24S2,39.25,2,26S12.75,2,26,2S50,12.75,50,26z"/>
        <g fill="none">
            <path d="M25.99,21.27V37"/>
            <path d="M21.46,21.27c0,0-3-1.59-3-3.75c0-2.16,1.72-2.52,2.46-2.52c1.69,0,3.54,1.35,5.53,6.27"/>
            <path d="M25.99,21.27c2-4.91,4.32-6.27,6-6.27c0.73,0,2.46,0.35,2.46,2.52c0,2.16-3,3.75-3,3.75"/>
            <path d="M37,26.19H15v-3.93c0-0.55,0.45-1,1-1h20c0.55,0,1,0.45,1,1V26.19z"/>
            <path d="M36,26.19V36c0,0.55-0.45,1-1,1H17c-0.55,0-1-0.45-1-1v-9.81"/>
        </g>
    </symbol>
	<symbol id="cart" viewbox="0 0 52 52">
        <title></title>
        <path fill="currentColor" d="M50,26c0,13.25-10.75,24-24,24S2,39.25,2,26S12.75,2,26,2S50,12.75,50,26z"/>
        <g fill="none">
            <path d="M31,37c-0.55,0-1-0.45-1-1s0.45-1,1-1c0.55,0,1,0.45,1,1S31.55,37,31,37z M25,36c0-0.55-0.45-1-1-1c-0.55,0-1,0.45-1,1s0.45,1,1,1C24.55,37,25,36.55,25,36z"/>
            <path d="M20,22h15l-3.02,10h-9.36l-4.1-15.07C18.23,15.86,17.1,15,16,15h-3"/>
        </g>
    </symbol>
	<symbol id="shoppable" viewbox="0 0 52 52">
        <title></title>
        <path fill="currentColor" d="M50,26c0,13.25-10.75,24-24,24S2,39.25,2,26S12.75,2,26,2S50,12.75,50,26z"/>
        <g fill="none">
            <path d="M35,35c0,0.55-0.45,1-1,1H18c-0.55,0-1-0.45-1-1V19c0-0.55,0.45-1,1-1h16c0.55,0,1,0.45,1,1V35z"/>
            <path d="M23,20v-4c0-1.1,0.9-2,2-2h2c1.1,0,2,0.9,2,2v4"/>
        </g>
    </symbol>
	<symbol id="analytics" viewbox="0 0 52 52">
        <title></title>
        <path fill="currentColor" d="M50,26c0,13.25-10.75,24-24,24S2,39.25,2,26S12.75,2,26,2S50,12.75,50,26z"/>
        <g fill="none">
            <path d="M36.5,37h-5V15h5V37z M28.5,27h-5v10h5V27z M20.5,37V22h-5v15H20.5z"/>
        </g>
    </symbol>
	<symbol id="publish" viewbox="0 0 52 52">
        <title></title>
        <path fill="currentColor" d="M50,26c0,13.25-10.75,24-24,24S2,39.25,2,26S12.75,2,26,2S50,12.75,50,26z"/>
        <g fill="none">
            <path d="M20,24h12"/>
            <path d="M20,27h8"/>
            <path d="M23,33h13c0.55,0,1-0.45,1-1V19c0-0.55-0.45-1-1-1H16c-0.55,0-1,0.45-1,1v13c0,0.55,0.45,1,1,1h3v5L23,33z"/>
        </g>
    </symbol>
	<symbol id="camera" viewbox="0 0 52 52">
        <title></title>
        <path fill="currentColor" d="M50,26c0,13.25-10.75,24-24,24S2,39.25,2,26S12.75,2,26,2S50,12.75,50,26z"/>
        <g fill="none">
            <path d="M31,32c0,0.55-0.45,1-1,1H16c-0.55,0-1-0.45-1-1V20c0-0.55,0.45-1,1-1h14c0.55,0,1,0.45,1,1v3l6-4v14l-6-4V32z"/>
        </g>
    </symbol>
	<symbol id="view" viewbox="0 0 52 52">
        <title></title>
        <path fill="currentColor" d="M50,26c0,13.25-10.75,24-24,24S2,39.25,2,26S12.75,2,26,2S50,12.75,50,26z"/>
        <g fill="none">
            <path d="M26,18c-7.39,0-11,6.08-11,8c0,1.92,3.61,8,11,8c7.39,0,11-6.08,11-8C37,24.08,33.39,18,26,18z M26,30c-2.21,0-4-1.79-4-4c0-2.21,1.79-4,4-4s4,1.79,4,4C30,28.21,28.21,30,26,30z"/>
        </g>
    </symbol>
	<symbol id="touch" viewbox="0 0 52 52">
        <title></title>
        <path fill="currentColor" d="M50,26c0,13.25-10.75,24-24,24S2,39.25,2,26S12.75,2,26,2S50,12.75,50,26z"/>
        <g fill="none">
            <path d="M24.37,21.06c0-0.99,0.81-1.79,1.8-1.79c1,0,1.8,0.8,1.8,1.79v3.63"/>
            <path d="M27.97,21.85c0-0.99,0.81-1.79,1.8-1.79c1,0,1.8,0.8,1.8,1.79v3.92"/>
            <path d="M31.58,23.5c0-0.99,0.81-1.79,1.8-1.79c1,0,1.8,0.8,1.8,1.79v9.54c0,4.83-3.5,6.96-7,6.96s-6.88-0.2-8.59-3.44c-1.72-3.24-1.35-4.77-4.33-8.48c-0.56-0.7-0.66-1.91,0.09-2.61c0.75-0.7,1.93-0.65,2.63,0.09l2.66,2.88v-14.6c0-1.02,0.83-1.85,1.86-1.85c1.03,0,1.86,0.83,1.86,1.85v9.6"/>
        </g>
    </symbol>
</svg>